<svg version="1.1" id="Layer_1" xmlns="http://www.w3.org/2000/svg" xmlns:xlink="http://www.w3.org/1999/xlink" x="0px" y="0px"
	 width="100%" viewBox="0 0 2048 2048" enable-background="new 0 0 2048 2048" xml:space="preserve">
<path fill="#F0F0EF" opacity="1.000000" stroke="none" 
	d="
M2049.000000,369.000000 
	C2049.000000,928.959961 2049.000000,1488.919922 2049.000000,2048.939941 
	C1366.422241,2048.939941 683.844421,2048.939941 1.000000,2048.939941 
	C1.000000,1489.295776 1.000000,929.591492 1.355361,369.684387 
	C1.807015,370.638000 1.981750,371.794006 1.988311,372.950989 
	C2.268919,422.436005 2.552736,471.921021 2.796935,521.406189 
	C3.041144,570.893677 3.237699,620.381348 3.488451,669.868713 
	C3.498068,671.766602 3.854864,673.662781 4.071346,675.768494 
	C5.638872,675.537537 6.607981,675.412354 7.570912,675.250427 
	C55.364445,667.210083 103.067825,658.580994 150.969986,651.250854 
	C239.085800,637.767090 327.630707,627.719055 416.410645,619.675781 
	C510.352173,611.164673 604.444946,604.851990 698.685303,601.177002 
	C777.269470,598.112610 855.904297,596.350952 934.516602,594.006409 
	C936.282227,593.953735 938.045837,593.829895 939.793396,593.740112 
	C940.174072,591.751709 940.546692,590.296509 940.721985,588.817871 
	C945.720886,546.646851 961.861633,508.919647 986.460449,474.623962 
	C1016.486084,432.762268 1055.280396,400.662354 1098.838623,373.839233 
	C1104.605957,370.287811 1110.374512,368.747589 1117.164185,368.750244 
	C1425.612305,368.869812 1734.060547,368.853638 2042.508667,368.859985 
	C2044.672485,368.860046 2046.836182,368.951324 2049.000000,369.000000 
z"/>
<path fill="#E4010F" opacity="1.000000" stroke="none" 
	d="
M2049.000000,368.531372 
	C2046.836182,368.951324 2044.672485,368.860046 2042.508667,368.859985 
	C1734.060547,368.853638 1425.612305,368.869812 1117.164185,368.750244 
	C1110.374512,368.747589 1104.605957,370.287811 1098.838623,373.839233 
	C1055.280396,400.662354 1016.486084,432.762268 986.460449,474.623962 
	C961.861633,508.919647 945.720886,546.646851 940.721985,588.817871 
	C940.546692,590.296509 940.174072,591.751709 939.793396,593.740112 
	C938.045837,593.829895 936.282227,593.953735 934.516602,594.006409 
	C855.904297,596.350952 777.269470,598.112610 698.685303,601.177002 
	C604.444946,604.851990 510.352173,611.164673 416.410645,619.675781 
	C327.630707,627.719055 239.085800,637.767090 150.969986,651.250854 
	C103.067825,658.580994 55.364445,667.210083 7.570912,675.250427 
	C6.607981,675.412354 5.638872,675.537537 4.071346,675.768494 
	C3.854864,673.662781 3.498068,671.766602 3.488451,669.868713 
	C3.237699,620.381348 3.041144,570.893677 2.796935,521.406189 
	C2.552736,471.921021 2.268919,422.436005 1.988311,372.950989 
	C1.981750,371.794006 1.807015,370.638000 1.355361,369.240784 
	C1.000000,247.312439 1.000000,125.624878 1.452071,3.511663 
	C683.104370,3.089143 1364.304565,3.092321 2045.504761,3.091479 
	C2046.669800,3.091477 2047.834961,3.031802 2049.000000,3.000000 
	C2049.000000,124.687561 2049.000000,246.375122 2049.000000,368.531372 
M370.995392,121.368858 
	C361.428894,96.464661 346.667297,75.008942 326.546967,57.642208 
	C289.171143,25.381475 245.769928,11.723764 196.531296,17.630198 
	C165.126938,21.397314 136.834152,33.137157 112.866356,53.615559 
	C66.539467,93.197876 46.084991,143.568329 54.244030,204.319717 
	C60.722263,252.556000 84.729668,291.152954 125.275421,317.554016 
	C182.435898,354.773590 242.323654,356.389099 301.549774,322.578461 
	C370.781281,283.055969 400.070526,196.687393 370.995392,121.368858 
M626.492676,251.872772 
	C662.613953,242.073776 683.235718,203.808029 671.711243,168.623428 
	C662.858887,141.597122 635.288391,119.736610 600.283325,123.893883 
	C572.240723,127.224281 548.390076,151.171768 544.579590,181.101944 
	C538.799438,226.502853 581.969910,264.253906 626.492676,251.872772 
M792.317932,247.191879 
	C837.719788,268.964081 887.732910,236.981949 886.948914,186.677643 
	C886.303406,145.253403 845.373108,114.624313 805.197876,125.501419 
	C777.604736,132.972015 759.483032,153.996964 756.514648,183.484619 
	C753.972961,208.734238 766.771484,233.796280 792.317932,247.191879 
M1065.019043,154.541183 
	C1054.849243,139.055634 1040.405151,129.776428 1022.612854,125.390190 
	C1019.635315,124.656174 1016.636169,123.732399 1013.610291,123.566620 
	C1011.470337,123.449371 1009.290344,124.606911 1007.089661,124.942207 
	C1002.369629,125.661362 997.538208,125.839417 992.904358,126.901787 
	C967.396179,132.749847 944.881653,158.842499 944.818176,187.011719 
	C944.191284,184.996216 943.901855,184.065643 943.612427,183.135071 
	C943.461792,183.165161 943.311218,183.195267 943.160645,183.225357 
	C943.160645,187.412369 943.160645,191.599365 943.160645,195.786377 
	C943.313293,195.818863 943.465942,195.851349 943.618530,195.883835 
	C943.899536,194.946609 944.180481,194.009384 944.746338,192.121765 
	C946.256042,221.867722 964.446289,244.589020 991.663208,252.637344 
	C1018.020325,260.431427 1044.470093,251.669357 1062.184082,228.995712 
	C1078.927368,207.564697 1079.179321,177.565109 1065.019043,154.541183 
z"/>
<path fill="#FFFFFF" opacity="1.000000" stroke="none" 
	d="
M2049.000000,2.500000 
	C2047.834961,3.031802 2046.669800,3.091477 2045.504761,3.091479 
	C1364.304565,3.092321 683.104370,3.089143 1.452071,3.043006 
	C1.333333,2.333333 1.548027,1.216341 2.023962,1.090954 
	C3.114909,0.803541 4.333333,1.000000 5.500000,1.000000 
	C685.166687,1.000000 1364.833374,0.999355 2044.500000,1.041164 
	C2046.000000,1.041256 2047.500000,1.666666 2049.000000,2.500000 
z"/>
<path fill="#F2EFF1" opacity="1.000000" stroke="none" 
	d="
M371.127167,121.733200 
	C400.070526,196.687393 370.781281,283.055969 301.549774,322.578461 
	C242.323654,356.389099 182.435898,354.773590 125.275421,317.554016 
	C84.729668,291.152954 60.722263,252.556000 54.244030,204.319717 
	C46.084991,143.568329 66.539467,93.197876 112.866356,53.615559 
	C136.834152,33.137157 165.126938,21.397314 196.531296,17.630198 
	C245.769928,11.723764 289.171143,25.381475 326.546967,57.642208 
	C346.667297,75.008942 361.428894,96.464661 371.127167,121.733200 
M315.012329,69.459160 
	C280.508392,39.950878 240.720825,27.347431 195.611710,33.064289 
	C160.869797,37.467274 131.062500,52.530003 107.027290,77.985756 
	C75.868896,110.985695 62.030197,150.333954 65.890793,195.748703 
	C67.666077,216.632568 73.642212,236.250977 83.899208,254.440903 
	C102.749512,287.870300 130.320724,311.331757 166.651611,323.718811 
	C203.289352,336.210480 239.873825,334.912567 275.350220,319.292084 
	C314.648102,301.988922 341.966156,272.821411 356.620850,232.402603 
	C368.817474,198.763474 368.546570,164.825104 356.647797,131.079773 
	C348.224152,107.190071 334.212952,86.974442 315.012329,69.459160 
z"/>
<path fill="#03E122" opacity="1.000000" stroke="none" 
	d="
M626.090515,251.950745 
	C581.969910,264.253906 538.799438,226.502853 544.579590,181.101944 
	C548.390076,151.171768 572.240723,127.224281 600.283325,123.893883 
	C635.288391,119.736610 662.858887,141.597122 671.711243,168.623428 
	C683.235718,203.808029 662.613953,242.073776 626.090515,251.950745 
z"/>
<path fill="#E4DD00" opacity="1.000000" stroke="none" 
	d="
M791.972900,247.050110 
	C766.771484,233.796280 753.972961,208.734238 756.514648,183.484619 
	C759.483032,153.996964 777.604736,132.972015 805.197876,125.501419 
	C845.373108,114.624313 886.303406,145.253403 886.948914,186.677643 
	C887.732910,236.981949 837.719788,268.964081 791.972900,247.050110 
z"/>
<path fill="#B2000C" opacity="1.000000" stroke="none" 
	d="
M1065.242432,154.828552 
	C1079.179321,177.565109 1078.927368,207.564697 1062.184082,228.995712 
	C1044.470093,251.669357 1018.020325,260.431427 991.663208,252.637344 
	C964.446289,244.589020 946.256042,221.867722 944.746338,192.121765 
	C944.180481,194.009384 943.899536,194.946609 943.618530,195.883835 
	C943.465942,195.851349 943.313293,195.818863 943.160645,195.786377 
	C943.160645,191.599365 943.160645,187.412369 943.160645,183.225357 
	C943.311218,183.195267 943.461792,183.165161 943.612427,183.135071 
	C943.901855,184.065643 944.191284,184.996216 944.818176,187.011719 
	C944.881653,158.842499 967.396179,132.749847 992.904358,126.901787 
	C997.538208,125.839417 1002.369629,125.661362 1007.089661,124.942207 
	C1009.290344,124.606911 1011.470337,123.449371 1013.610291,123.566620 
	C1016.636169,123.732399 1019.635315,124.656174 1022.612854,125.390190 
	C1040.405151,129.776428 1054.849243,139.055634 1065.242432,154.828552 
z"/>
<path fill="#0159E4" opacity="1.000000" stroke="none" 
	d="
M315.282532,69.690948 
	C334.212952,86.974442 348.224152,107.190071 356.647797,131.079773 
	C368.546570,164.825104 368.817474,198.763474 356.620850,232.402603 
	C341.966156,272.821411 314.648102,301.988922 275.350220,319.292084 
	C239.873825,334.912567 203.289352,336.210480 166.651611,323.718811 
	C130.320724,311.331757 102.749512,287.870300 83.899208,254.440903 
	C73.642212,236.250977 67.666077,216.632568 65.890793,195.748703 
	C62.030197,150.333954 75.868896,110.985695 107.027290,77.985756 
	C131.062500,52.530003 160.869797,37.467274 195.611710,33.064289 
	C240.720825,27.347431 280.508392,39.950878 315.282532,69.690948 
M123.623413,108.149651 
	C116.005882,116.543938 110.312157,126.152100 107.677513,137.125351 
	C106.154510,143.468658 105.338730,150.327408 105.981720,156.777023 
	C107.586716,172.876358 119.655777,179.091110 134.356628,172.079208 
	C144.938156,167.032089 152.502548,158.747620 158.592468,149.000626 
	C165.331650,138.214417 169.482361,126.622139 169.121246,113.680634 
	C168.622940,95.822227 155.669113,87.568466 139.891861,95.714546 
	C134.119247,98.695045 129.338608,103.596802 123.623413,108.149651 
z"/>
<path fill="#A0BFF0" opacity="1.000000" stroke="none" 
	d="
M123.864426,107.885880 
	C129.338608,103.596802 134.119247,98.695045 139.891861,95.714546 
	C155.669113,87.568466 168.622940,95.822227 169.121246,113.680634 
	C169.482361,126.622139 165.331650,138.214417 158.592468,149.000626 
	C152.502548,158.747620 144.938156,167.032089 134.356628,172.079208 
	C119.655777,179.091110 107.586716,172.876358 105.981720,156.777023 
	C105.338730,150.327408 106.154510,143.468658 107.677513,137.125351 
	C110.312157,126.152100 116.005882,116.543938 123.864426,107.885880 
z"/>
</svg>